<mxfile host="app.diagrams.net" modified="2021-08-08T08:14:59.231Z" agent="5.0 (X11; Linux x86_64) AppleWebKit/537.36 (KHTML, like Gecko) Chrome/92.0.4515.131 Safari/537.36" etag="IKLfQTA50_h5tyD6kH3X" version="14.9.4" type="github">
  <diagram id="UusXQ6ikj-Esjrslnh-H" name="Page-1">
    <mxGraphModel dx="2030" dy="2358" grid="1" gridSize="10" guides="1" tooltips="1" connect="1" arrows="1" fold="1" page="1" pageScale="1" pageWidth="827" pageHeight="1169" math="0" shadow="0">
      <root>
        <mxCell id="0" />
        <mxCell id="1" parent="0" />
        <mxCell id="p4KwdCJ2RTH9q52Z2GX8-1" value="" style="whiteSpace=wrap;html=1;aspect=fixed;" vertex="1" parent="1">
          <mxGeometry x="60" y="50" width="1270" height="1270" as="geometry" />
        </mxCell>
        <mxCell id="p4KwdCJ2RTH9q52Z2GX8-2" value="" style="rounded=0;whiteSpace=wrap;html=1;" vertex="1" parent="1">
          <mxGeometry x="60" y="-100" width="1270" height="110" as="geometry" />
        </mxCell>
        <mxCell id="p4KwdCJ2RTH9q52Z2GX8-3" value="" style="rounded=0;whiteSpace=wrap;html=1;" vertex="1" parent="1">
          <mxGeometry x="229" y="130" width="952.5" height="1150" as="geometry" />
        </mxCell>
        <mxCell id="p4KwdCJ2RTH9q52Z2GX8-6" value="" style="rounded=0;whiteSpace=wrap;html=1;" vertex="1" parent="1">
          <mxGeometry x="291" y="220" width="337" height="43" as="geometry" />
        </mxCell>
        <mxCell id="p4KwdCJ2RTH9q52Z2GX8-7" value="&lt;font style=&quot;font-size: 14px&quot;&gt;Header title&amp;nbsp; *&lt;/font&gt;" style="text;html=1;strokeColor=none;fillColor=none;align=center;verticalAlign=middle;whiteSpace=wrap;rounded=0;" vertex="1" parent="1">
          <mxGeometry x="276" y="187" width="106" height="20" as="geometry" />
        </mxCell>
        <mxCell id="p4KwdCJ2RTH9q52Z2GX8-9" value="&lt;font style=&quot;font-size: 14px&quot;&gt;Date of billing *&lt;/font&gt;" style="text;html=1;strokeColor=none;fillColor=none;align=center;verticalAlign=middle;whiteSpace=wrap;rounded=0;" vertex="1" parent="1">
          <mxGeometry x="740" y="187" width="106" height="20" as="geometry" />
        </mxCell>
        <mxCell id="p4KwdCJ2RTH9q52Z2GX8-10" value="" style="rounded=0;whiteSpace=wrap;html=1;" vertex="1" parent="1">
          <mxGeometry x="292.5" y="770" width="795" height="130" as="geometry" />
        </mxCell>
        <mxCell id="p4KwdCJ2RTH9q52Z2GX8-12" value="&lt;h1&gt;&lt;font style=&quot;font-size: 18px&quot;&gt;Address&lt;/font&gt;&lt;/h1&gt;&lt;p&gt;&lt;span&gt;Compnay Name&lt;br&gt;Full Address with pincode&lt;br&gt;Mobile email and Fax (if any)&amp;nbsp;&lt;/span&gt;&lt;/p&gt;" style="text;html=1;strokeColor=none;fillColor=none;spacing=5;spacingTop=-20;whiteSpace=wrap;overflow=hidden;rounded=0;" vertex="1" parent="1">
          <mxGeometry x="290" y="610" width="190" height="100" as="geometry" />
        </mxCell>
        <mxCell id="p4KwdCJ2RTH9q52Z2GX8-19" value="col-md-12, x_panel" style="text;html=1;strokeColor=none;fillColor=none;align=center;verticalAlign=middle;whiteSpace=wrap;rounded=0;" vertex="1" parent="1">
          <mxGeometry x="229" y="100" width="225" height="20" as="geometry" />
        </mxCell>
        <mxCell id="p4KwdCJ2RTH9q52Z2GX8-20" value="" style="rounded=0;whiteSpace=wrap;html=1;" vertex="1" parent="1">
          <mxGeometry x="291" y="1080" width="800" height="130" as="geometry" />
        </mxCell>
        <mxCell id="p4KwdCJ2RTH9q52Z2GX8-22" value="&lt;h1&gt;&lt;font style=&quot;font-size: 18px&quot;&gt;Sender Address&lt;/font&gt;&lt;/h1&gt;&lt;p&gt;&lt;span&gt;Compnay Name&lt;br&gt;Full Address with pincode&lt;br&gt;Mobile email and Fax (if any)&amp;nbsp;&lt;/span&gt;&lt;/p&gt;" style="text;html=1;strokeColor=none;fillColor=none;spacing=5;spacingTop=-20;whiteSpace=wrap;overflow=hidden;rounded=0;" vertex="1" parent="1">
          <mxGeometry x="291" y="920" width="190" height="100" as="geometry" />
        </mxCell>
        <mxCell id="p4KwdCJ2RTH9q52Z2GX8-23" value="" style="rounded=1;whiteSpace=wrap;html=1;" vertex="1" parent="1">
          <mxGeometry x="971" y="1223" width="120" height="40" as="geometry" />
        </mxCell>
        <mxCell id="p4KwdCJ2RTH9q52Z2GX8-24" value="Generate" style="text;html=1;strokeColor=none;fillColor=none;align=center;verticalAlign=middle;whiteSpace=wrap;rounded=0;" vertex="1" parent="1">
          <mxGeometry x="1007" y="1234" width="40" height="20" as="geometry" />
        </mxCell>
        <mxCell id="p4KwdCJ2RTH9q52Z2GX8-25" value="" style="rounded=1;whiteSpace=wrap;html=1;" vertex="1" parent="1">
          <mxGeometry x="827" y="1224" width="120" height="40" as="geometry" />
        </mxCell>
        <mxCell id="p4KwdCJ2RTH9q52Z2GX8-26" value="Reset" style="text;html=1;strokeColor=none;fillColor=none;align=center;verticalAlign=middle;whiteSpace=wrap;rounded=0;" vertex="1" parent="1">
          <mxGeometry x="869" y="1235" width="40" height="20" as="geometry" />
        </mxCell>
        <mxCell id="p4KwdCJ2RTH9q52Z2GX8-28" value="" style="rounded=0;whiteSpace=wrap;html=1;" vertex="1" parent="1">
          <mxGeometry x="293" y="720" width="337" height="43" as="geometry" />
        </mxCell>
        <mxCell id="p4KwdCJ2RTH9q52Z2GX8-29" value="" style="rounded=0;whiteSpace=wrap;html=1;" vertex="1" parent="1">
          <mxGeometry x="291" y="1030" width="337" height="43" as="geometry" />
        </mxCell>
        <mxCell id="p4KwdCJ2RTH9q52Z2GX8-32" value="" style="rounded=0;whiteSpace=wrap;html=1;" vertex="1" parent="1">
          <mxGeometry x="291" y="321" width="337" height="43" as="geometry" />
        </mxCell>
        <mxCell id="p4KwdCJ2RTH9q52Z2GX8-33" value="" style="rounded=0;whiteSpace=wrap;html=1;" vertex="1" parent="1">
          <mxGeometry x="746" y="320" width="337" height="43" as="geometry" />
        </mxCell>
        <mxCell id="p4KwdCJ2RTH9q52Z2GX8-34" value="" style="rounded=0;whiteSpace=wrap;html=1;" vertex="1" parent="1">
          <mxGeometry x="746" y="220" width="337" height="43" as="geometry" />
        </mxCell>
        <mxCell id="p4KwdCJ2RTH9q52Z2GX8-36" value="&lt;font style=&quot;font-size: 14px&quot;&gt;Bill for month *&lt;/font&gt;" style="text;html=1;strokeColor=none;fillColor=none;align=center;verticalAlign=middle;whiteSpace=wrap;rounded=0;" vertex="1" parent="1">
          <mxGeometry x="280" y="296" width="106" height="20" as="geometry" />
        </mxCell>
        <mxCell id="p4KwdCJ2RTH9q52Z2GX8-37" value="&lt;font style=&quot;font-size: 14px&quot;&gt;Package amount&lt;/font&gt;" style="text;html=1;strokeColor=none;fillColor=none;align=center;verticalAlign=middle;whiteSpace=wrap;rounded=0;" vertex="1" parent="1">
          <mxGeometry x="288.5" y="503.5" width="121.5" height="23" as="geometry" />
        </mxCell>
        <mxCell id="p4KwdCJ2RTH9q52Z2GX8-39" value="" style="rounded=0;whiteSpace=wrap;html=1;" vertex="1" parent="1">
          <mxGeometry x="290" y="432" width="79" height="43" as="geometry" />
        </mxCell>
        <mxCell id="p4KwdCJ2RTH9q52Z2GX8-40" value="&lt;font style=&quot;font-size: 14px&quot;&gt;CGST *&lt;/font&gt;" style="text;html=1;strokeColor=none;fillColor=none;align=center;verticalAlign=middle;whiteSpace=wrap;rounded=0;" vertex="1" parent="1">
          <mxGeometry x="280" y="396" width="89.5" height="20" as="geometry" />
        </mxCell>
        <mxCell id="p4KwdCJ2RTH9q52Z2GX8-42" value="" style="rounded=0;whiteSpace=wrap;html=1;" vertex="1" parent="1">
          <mxGeometry x="422" y="432" width="79" height="43" as="geometry" />
        </mxCell>
        <mxCell id="p4KwdCJ2RTH9q52Z2GX8-43" value="10" style="rounded=0;whiteSpace=wrap;html=1;" vertex="1" parent="1">
          <mxGeometry x="540" y="432" width="79" height="43" as="geometry" />
        </mxCell>
        <mxCell id="p4KwdCJ2RTH9q52Z2GX8-44" value="&lt;font style=&quot;font-size: 14px&quot;&gt;SGST *&lt;/font&gt;" style="text;html=1;strokeColor=none;fillColor=none;align=center;verticalAlign=middle;whiteSpace=wrap;rounded=0;" vertex="1" parent="1">
          <mxGeometry x="396" y="396" width="100" height="20" as="geometry" />
        </mxCell>
        <mxCell id="p4KwdCJ2RTH9q52Z2GX8-45" value="&lt;font style=&quot;font-size: 14px&quot;&gt;IGST *&lt;/font&gt;" style="text;html=1;strokeColor=none;fillColor=none;align=center;verticalAlign=middle;whiteSpace=wrap;rounded=0;" vertex="1" parent="1">
          <mxGeometry x="525" y="395" width="69" height="20" as="geometry" />
        </mxCell>
        <mxCell id="p4KwdCJ2RTH9q52Z2GX8-48" value="Default 31" style="rounded=0;whiteSpace=wrap;html=1;" vertex="1" parent="1">
          <mxGeometry x="749" y="432" width="337" height="43" as="geometry" />
        </mxCell>
        <mxCell id="p4KwdCJ2RTH9q52Z2GX8-49" value="&lt;font style=&quot;font-size: 14px&quot;&gt;No. of working days&lt;/font&gt;" style="text;html=1;strokeColor=none;fillColor=none;align=center;verticalAlign=middle;whiteSpace=wrap;rounded=0;" vertex="1" parent="1">
          <mxGeometry x="740" y="394" width="140" height="20" as="geometry" />
        </mxCell>
        <mxCell id="p4KwdCJ2RTH9q52Z2GX8-50" value="3,300" style="rounded=0;whiteSpace=wrap;html=1;" vertex="1" parent="1">
          <mxGeometry x="752" y="532" width="337" height="43" as="geometry" />
        </mxCell>
        <mxCell id="p4KwdCJ2RTH9q52Z2GX8-51" value="&lt;font style=&quot;font-size: 14px&quot;&gt;Grand total amount / month&lt;/font&gt;" style="text;html=1;strokeColor=none;fillColor=none;align=center;verticalAlign=middle;whiteSpace=wrap;rounded=0;" vertex="1" parent="1">
          <mxGeometry x="742" y="505" width="198" height="20" as="geometry" />
        </mxCell>
        <mxCell id="p4KwdCJ2RTH9q52Z2GX8-65" value="360, 000" style="rounded=0;whiteSpace=wrap;html=1;" vertex="1" parent="1">
          <mxGeometry x="292" y="535" width="337" height="43" as="geometry" />
        </mxCell>
        <mxCell id="p4KwdCJ2RTH9q52Z2GX8-66" value="&lt;font style=&quot;font-size: 14px&quot;&gt;Bill no.# (optional)&lt;/font&gt;" style="text;html=1;strokeColor=none;fillColor=none;align=center;verticalAlign=middle;whiteSpace=wrap;rounded=0;" vertex="1" parent="1">
          <mxGeometry x="733" y="290" width="140" height="20" as="geometry" />
        </mxCell>
        <mxCell id="p4KwdCJ2RTH9q52Z2GX8-67" value="Compnay name" style="text;html=1;strokeColor=none;fillColor=none;align=center;verticalAlign=middle;whiteSpace=wrap;rounded=0;" vertex="1" parent="1">
          <mxGeometry x="313" y="731.5" width="97" height="20" as="geometry" />
        </mxCell>
        <mxCell id="p4KwdCJ2RTH9q52Z2GX8-69" value="Compnay name" style="text;html=1;strokeColor=none;fillColor=none;align=center;verticalAlign=middle;whiteSpace=wrap;rounded=0;" vertex="1" parent="1">
          <mxGeometry x="313" y="1041.5" width="97" height="20" as="geometry" />
        </mxCell>
        <mxCell id="p4KwdCJ2RTH9q52Z2GX8-72" value="January" style="text;html=1;strokeColor=none;fillColor=none;align=center;verticalAlign=middle;whiteSpace=wrap;rounded=0;" vertex="1" parent="1">
          <mxGeometry x="294.5" y="331.5" width="70" height="20" as="geometry" />
        </mxCell>
        <mxCell id="p4KwdCJ2RTH9q52Z2GX8-73" value="Bottom Half" style="text;html=1;strokeColor=none;fillColor=none;align=center;verticalAlign=middle;whiteSpace=wrap;rounded=0;" vertex="1" parent="1">
          <mxGeometry x="304.75" y="231.5" width="85.25" height="20" as="geometry" />
        </mxCell>
        <mxCell id="p4KwdCJ2RTH9q52Z2GX8-74" value="Aug 12, 2021" style="text;html=1;strokeColor=none;fillColor=none;align=center;verticalAlign=middle;whiteSpace=wrap;rounded=0;" vertex="1" parent="1">
          <mxGeometry x="757" y="230" width="87" height="20" as="geometry" />
        </mxCell>
      </root>
    </mxGraphModel>
  </diagram>
</mxfile>
